# xmcd CD database file
#
# Track frame offsets:
#	150
#	15563
#	29189
#	41933
#	55683
#	68641
#	83420
#	96285
#	109427
#	122214
#	135980
#	146065
#	153576
#	167687
#	182283
#	195429
#	207352
#	220289
#	230895
#	244236
#
# Disc length: 3405 seconds
#
# Revision: 0
# Processed by: cddbd v1.5.1PL0 Copyright (c) Steve Scherf et al.
# Submitted via: CDex 1.51
#
DISCID=220d4b14
DTITLE=Nat King Cole - Mona Lisa
DYEAR=1900
DGENRE=Jazz
TTITLE0=Nat King Cole - Mona Lisa
TTITLE1=Nat King Cole - I Just Can't See For Looking
TTITLE2=Nat King Cole - Gee Baby Ain't I Good To You
TTITLE3=Nat King Cole - I'd Love To Make Love To You
TTITLE4=Nat King Cole - What Is This Thing Called Love
TTITLE5=Nat King Cole - Embraceable You
TTITLE6=Nat King Cole - I'm In The Mood For Love
TTITLE7=Nat King Cole - Route 66
TTITLE8=Nat King Cole - It's Only A Paper Moon
TTITLE9=Nat King Cole - I Realise Now
TTITLE10=Nat King Cole - Sweet Georgia Brown
TTITLE11=Nat King Cole - It Had To Be You
TTITLE12=Nat King Cole - The Christmas Song
TTITLE13=Nat King Cole - The Man I Love
TTITLE14=Nat King Cole - Baby Baby All The Time
TTITLE15=Nat King Cole - If I Could Be With You
TTITLE16=Nat King Cole - Hit That Jive Jack
TTITLE17=Nat King Cole - Straighten Up And Fly Right
TTITLE18=Nat King Cole - You Call It Madness But I Call It Love
TTITLE19=Nat King Cole - What Can I Say After I Say I'm Sorry
EXTD=
EXTT0=
EXTT1=
EXTT2=
EXTT3=
EXTT4=
EXTT5=
EXTT6=
EXTT7=
EXTT8=
EXTT9=
EXTT10=
EXTT11=
EXTT12=
EXTT13=
EXTT14=
EXTT15=
EXTT16=
EXTT17=
EXTT18=
EXTT19=
PLAYORDER=
